{
  "scene": 0,
  "scenes": [
    {
      "name": "Root Scene",
      "nodes": [
        0
      ]
    }
  ],
  "nodes": [
    {
      "name": "RootNode",
      "translation": [
        0.0,
        0.0,
        0.0
      ],
      "rotation": [
        0.0,
        0.0,
        0.0,
        1.0
      ],
      "scale": [
        1.0,
        1.0,
        1.0
      ],
      "children": [
        1
      ]
    },
    {
      "name": "touzi",
      "translation": [
        0.0,
        0.0,
        0.0
      ],
      "rotation": [
        0.0,
        0.0,
        0.0,
        1.0
      ],
      "scale": [
        1.0,
        1.0,
        1.0
      ],
      "mesh": 0
    }
  ],
  "meshes": [
    {
      "name": "touzi",
      "primitives": [
        {
          "material": 0,
          "mode": 4,
          "attributes": {
            "NORMAL": 2,
            "POSITION": 1,
            "TANGENT": 3,
            "TEXCOORD_0": 4
          },
          "indices": 0
        }
      ]
    }
  ],
  "materials": [
    {
      "name": "touzi_m",
      "alphaMode": "OPAQUE",
      "extras": {
        "fromFBX": {
          "shadingModel": "Lambert",
          "isTruePBR": false
        }
      },
      "pbrMetallicRoughness": {
        "baseColorTexture": {
          "index": 0,
          "texCoord": 0
        },
        "baseColorFactor": [
          0.800000011920929,
          0.800000011920929,
          0.800000011920929,
          1.0
        ],
        "metallicFactor": 0.200000002980232,
        "roughnessFactor": 0.800000011920929
      }
    }
  ],
  "asset": {
    "generator": "FBX2glTF v0.9.7",
    "version": "2.0"
  },
  "buffers": [
    {
      "byteLength": 299316,
      "uri": "buffer.bin"
    }
  ],
  "bufferViews": [
    {
      "buffer": 0,
      "byteLength": 52932,
      "byteOffset": 0,
      "target": 34963
    },
    {
      "buffer": 0,
      "byteLength": 61596,
      "byteOffset": 52932,
      "target": 34962
    },
    {
      "buffer": 0,
      "byteLength": 61596,
      "byteOffset": 114528,
      "target": 34962
    },
    {
      "buffer": 0,
      "byteLength": 82128,
      "byteOffset": 176124,
      "target": 34962
    },
    {
      "buffer": 0,
      "byteLength": 41064,
      "byteOffset": 258252,
      "target": 34962
    }
  ],
  "accessors": [
    {
      "componentType": 5123,
      "type": "SCALAR",
      "count": 26466,
      "bufferView": 0,
      "byteOffset": 0
    },
    {
      "componentType": 5126,
      "type": "VEC3",
      "count": 5133,
      "bufferView": 1,
      "byteOffset": 0,
      "min": [
        -0.00295299990102649,
        -0.00295299990102649,
        -0.00295299990102649
      ],
      "max": [
        0.00295299990102649,
        0.00295299990102649,
        0.00295299990102649
      ]
    },
    {
      "componentType": 5126,
      "type": "VEC3",
      "count": 5133,
      "bufferView": 2,
      "byteOffset": 0
    },
    {
      "componentType": 5126,
      "type": "VEC4",
      "count": 5133,
      "bufferView": 3,
      "byteOffset": 0
    },
    {
      "componentType": 5126,
      "type": "VEC2",
      "count": 5133,
      "bufferView": 4,
      "byteOffset": 0
    }
  ],
  "textures": [
    {
      "name": "file1",
      "sampler": 0,
      "source": 0
    }
  ],
  "samplers": [
    {}
  ],
  "images": [
    {
      "name": "touzi_t.jpg",
      "uri": "touzi_t.jpg"
    }
  ]
}
